<svg xmlns="http://www.w3.org/2000/svg" xmlns:xlink="http://www.w3.org/1999/xlink"
	 viewBox="0 0 300 204.8">
<style type="text/css">
	.st0{fill:black;}
</style>
	<path class="st0" d="M56,3.2c2.3,0.5,2.6,0.8,2.6,5.5v19.1c0,4.7-0.3,5-2.6,5.4l-2.4,0.3c-0.4,0.3-0.4,1.5,0,1.8
		c3.8-0.1,6.3-0.2,8.8-0.2h6.7c4.2,0,9.1,0.1,11.8,0.2c0.7-1.4,1.9-5.5,2.2-8.2c-0.2-0.6-1.5-0.8-1.9-0.3c-2.8,5.8-4.6,5.9-9,5.9
		c-3.7,0-4.7-0.4-5.4-1.3c-0.6-0.9-0.8-2.5-0.8-4.9v-6.1C66,19,66,19,67.4,19H71c2.7,0,3.3,0.4,3.8,2.9l0.3,1.3
		c0.3,0.4,1.6,0.4,1.9-0.1c-0.1-1.6-0.2-3.5-0.2-5.5c0-1.9,0.1-3.8,0.2-5.5c-0.3-0.4-1.6-0.4-1.9-0.1l-0.3,1.3
		c-0.5,2.4-1.1,2.8-3.8,2.8h-3.6c-1.4,0-1.5-0.1-1.5-1.6V5.7c0-1.9,0-2,1.6-2h4.2c2.5,0,4.1,0.6,5,1.6c0.7,0.7,1.4,2.3,1.9,4.1
		c0.5,0.4,1.7,0.3,1.9-0.2c-0.3-3.5-0.6-7.1-0.7-8c-0.7,0.1-3.6,0.2-6.8,0.2H62.1c-3.5,0-4.9-0.2-7.7-0.2c-1.9,0-2.4,0.2-5,0.2
		c-1.6,0-3.6-0.1-5.2-0.2C43.8,1.5,43.6,2.5,44,3l1.1,0.3c0.7,0.2,1,0.3,1,0.7c0,0.5-1,3.5-1.4,4.3c-2.4,6.2-4.9,12.6-7.3,18.6
		c-0.3-0.7-1-2.2-2.3-5l-2.4-5.2c-0.3-0.8-0.4-1.1-0.4-1.3c0-0.3,0.7-1.7,1.1-2.7c0.7-1.3,1.9-3.7,3.2-5.8c1.8-3,2.2-3.3,3.9-3.6
		L42,2.9c0.4-0.3,0.3-1.6-0.1-1.8c-1.3,0.1-3.2,0.2-5.2,0.2c-1.7,0-3.6-0.1-5-0.2c-0.4,0.3-0.5,1.5-0.2,1.8l1.6,0.3
		c0.8,0.2,1,0.3,1,0.7s-0.5,1.8-1.4,3.8l-0.4,1L30.8,12c-0.4-1-1-2.1-1.5-3.1l-1.6-3.6c-0.3-0.5-0.4-1.1-0.4-1.6
		c0-0.3,0.8-0.5,1.4-0.7l0.9-0.2c0.3-0.3,0.4-1.6-0.2-1.8c-1.3,0.1-3.3,0.2-5.9,0.2c-2.3,0-4.2-0.1-6.4-0.2
		c-0.5,0.2-0.7,1.4-0.2,1.8L17.4,3c1.9,0.2,2.3,0.5,3.5,3.1L25.8,17c0.2,0.5,0.3,1,0.3,1.4c0,0.3-0.3,1.5-0.7,2.3l-0.7,1.5
		c-1,2.3-1.8,3.8-2.4,4.9c-0.6-1.2-1.1-2.3-2.6-5.5l-5-11.3C13.2,6.7,12,4.3,12,4s0.3-0.6,1.3-0.8l1-0.2c0.5-0.3,0.3-1.6-0.1-1.8
		C12.3,1.3,10.3,1.4,8,1.4c-2.6,0-4.8-0.1-6.7-0.2C0.8,1.5,0.8,2.5,1.2,3l1.3,0.3c1.7,0.3,2,0.6,3.4,3.6l8.4,18.3
		c1.7,3.8,3.8,8.4,4.6,10.6c0.4,0.3,0.8,0.4,1.3,0.4c0.8,0,1.5-0.2,1.6-0.4c0.8-1.6,1.4-3.2,2.2-4.8l2.4-5.2
		c0.7-1.5,1.3-2.7,1.7-3.6c0.4,0.8,1.1,2.3,1.8,3.9l2.2,4.9c0.6,1.5,1.4,3.3,1.9,4.5c0.3,0.3,0.8,0.4,1.4,0.4c0.7,0,1.4-0.2,1.6-0.4
		c2.5-6.7,8.3-19.4,10.8-25.4c1.4-3.2,2.3-4.9,2.8-5.7c0.3-0.4,1-0.8,2.1-1.1C54.2,2.9,54.8,2.9,56,3.2L56,3.2L56,3.2z M97.3,26.6
		c0,2.4,0.2,4.1,0.9,4.9c0.7,0.9,1.6,1.3,5.3,1.3c4.7,0,6.1-0.2,9.1-6.1c0.4-0.5,1.6-0.3,1.9,0.3c-0.3,2.7-1.5,6.9-2.2,8.3
		c-2.7-0.1-7.6-0.2-11.8-0.2h-6.8c-2.3,0-4.9,0.1-8.1,0.2c-0.4-0.3-0.5-1.5-0.2-1.8l1.9-0.3c2.3-0.3,2.6-0.7,2.6-5.5V8.7
		c0-4.8-0.3-5.2-2.6-5.5L85.9,3c-0.5-0.3-0.5-1.5,0.1-1.8c2.7,0.1,5.2,0.2,7.7,0.2s5-0.1,7.5-0.2c0.4,0.3,0.4,1.5,0,1.8l-1.3,0.2
		c-2.3,0.3-2.6,0.8-2.6,5.5L97.3,26.6L97.3,26.6z M127.8,26.6c0,2.4,0.2,4.1,0.9,4.9c0.7,0.9,1.6,1.3,5.3,1.3c4.7,0,6.1-0.2,9.1-6.1
		c0.4-0.5,1.6-0.3,1.9,0.3c-0.3,2.7-1.5,6.9-2.2,8.3c-2.7-0.1-7.6-0.2-11.8-0.2h-6.8c-2.3,0-4.9,0.1-8.1,0.2
		c-0.4-0.3-0.5-1.5-0.2-1.8l1.9-0.3c2.3-0.3,2.6-0.7,2.6-5.5V8.7c0-4.8-0.3-5.2-2.6-5.5L116.3,3c-0.5-0.3-0.5-1.5,0.1-1.8
		c2.7,0.1,5.2,0.2,7.7,0.2c2.4,0,5-0.1,7.5-0.2c0.4,0.3,0.4,1.5,0,1.8l-1.3,0.2c-2.3,0.3-2.6,0.8-2.6,5.5V26.6L127.8,26.6z
		 M158.6,14.6c0,1.5,0.1,1.6,1.5,1.6h3.6c2.7,0,3.3-0.3,3.8-2.8l0.3-1.3c0.3-0.4,1.6-0.4,1.9,0.1c-0.1,1.6-0.2,3.5-0.2,5.5
		c0,1.9,0.1,3.8,0.2,5.5c-0.3,0.4-1.6,0.5-1.9,0.1l-0.3-1.3c-0.5-2.4-1.1-2.9-3.8-2.9H160c-1.4,0-1.5,0.1-1.5,1.6v6.1
		c0,2.3,0.2,4,0.8,4.9c0.7,1,1.6,1.3,5.4,1.3c4.4,0,6.2-0.2,9-5.9c0.4-0.5,1.6-0.3,1.9,0.3c-0.2,2.7-1.5,6.8-2.2,8.2
		c-2.7-0.1-7.6-0.2-11.8-0.2H155c-2.4,0-4.9,0.1-8.8,0.2c-0.4-0.3-0.4-1.6,0-1.8l2.4-0.3c2.3-0.3,2.6-0.7,2.6-5.4V8.7
		c0-4.7-0.3-4.9-2.6-5.5L147.3,3c-0.4-0.3-0.4-1.5,0.1-1.8c2.4,0.1,4.9,0.2,7.4,0.2h10.8c3.3,0,6.2-0.1,6.8-0.2
		c0.1,0.8,0.4,4.5,0.7,8c-0.2,0.5-1.4,0.7-1.9,0.2c-0.6-1.8-1.3-3.3-1.9-4.1c-1-1-2.5-1.6-5-1.6h-4.1c-1.6,0-1.6,0.1-1.6,2V14.6
		L158.6,14.6z M189.7,36c-4.7,0-7.6-1.3-8.7-1.9c-1-1.1-1.6-4.8-1.6-8.3c0.3-0.7,1.6-0.7,1.9-0.2c1,3.3,4.4,8.1,8.8,8.1
		c3.8,0,5.5-2.6,5.5-5.2c0-4.2-3.9-6.6-6.9-8.2c-3.7-1.8-7.7-4.9-7.7-10c-0.1-5.8,4.4-9.8,11.8-9.8c1.6,0,3.8,0.2,5.8,0.8
		c0.7,0.2,1.1,0.3,1.7,0.4c0.4,1.1,1,3.9,1,7.3c-0.3,0.6-1.6,0.7-2,0.2c-0.9-2.6-3-6.3-6.8-6.3c-3.4,0-5.2,2.2-5.2,4.8
		c0,2.3,2.1,4.5,4.7,5.8l3.4,1.8c3.2,1.6,7.2,4.7,7.2,10.3C202.6,31.8,197.5,36,189.7,36L189.7,36L189.7,36z M218.1,26.6
		c0,2.4,0.2,4.1,0.9,4.9c0.7,0.9,1.6,1.3,5.3,1.3c4.7,0,6.1-0.2,9.1-6.1c0.4-0.5,1.6-0.3,1.9,0.3c-0.3,2.7-1.5,6.9-2.2,8.3
		c-2.7-0.1-7.6-0.2-11.8-0.2h-6.8c-2.3,0-4.9,0.1-8.1,0.2c-0.4-0.3-0.6-1.5-0.2-1.8l1.9-0.3c2.3-0.3,2.6-0.7,2.6-5.5V8.7
		c0-4.8-0.3-5.2-2.6-5.5L206.7,3c-0.5-0.3-0.5-1.5,0.1-1.8c2.7,0.1,5.2,0.2,7.7,0.2c2.4,0,5-0.1,7.5-0.2c0.4,0.3,0.4,1.5,0,1.8
		l-1.3,0.2c-2.3,0.3-2.6,0.8-2.6,5.5L218.1,26.6L218.1,26.6z M248.8,14.6c0,1.5,0.1,1.6,1.5,1.6h3.6c2.7,0,3.3-0.3,3.8-2.8l0.3-1.3
		c0.3-0.4,1.6-0.4,1.9,0.1c-0.1,1.6-0.2,3.5-0.2,5.5c0,1.9,0.1,3.8,0.2,5.5c-0.3,0.4-1.6,0.5-1.9,0.1l-0.3-1.3
		c-0.5-2.4-1.1-2.9-3.8-2.9h-3.6c-1.4,0-1.5,0.1-1.5,1.6v6.1c0,2.3,0.2,4,0.8,4.9c0.7,1,1.6,1.3,5.4,1.3c4.4,0,6.2-0.2,9-5.9
		c0.4-0.5,1.6-0.3,1.9,0.3c-0.2,2.7-1.5,6.8-2.2,8.2c-2.7-0.1-7.6-0.2-11.8-0.2h-6.7c-2.4,0-4.9,0.1-8.8,0.2c-0.4-0.3-0.4-1.6,0-1.8
		l2.4-0.3c2.3-0.3,2.6-0.7,2.6-5.4V8.7c0-4.7-0.3-4.9-2.6-5.5L237.6,3c-0.4-0.3-0.4-1.5,0.1-1.8c2.4,0.1,4.9,0.2,7.4,0.2h10.8
		c3.3,0,6.2-0.1,6.8-0.2c0.1,0.8,0.4,4.5,0.7,8c-0.2,0.5-1.4,0.7-1.9,0.2c-0.5-1.8-1.3-3.3-1.9-4.1c-1-1-2.5-1.6-5-1.6h-4.1
		c-1.6,0-1.6,0.1-1.6,2L248.8,14.6L248.8,14.6z M285.6,27.7c0,4.8,0.3,5.2,2.6,5.5l2.1,0.3c0.3,0.3,0.3,1.5,0,1.8
		c-3.3-0.1-5.8-0.2-8.3-0.2c-2.4,0-5,0.1-8.1,0.2c-0.4-0.3-0.4-1.5,0-1.8l1.7-0.3c2.3-0.3,2.6-0.7,2.6-5.5v-2.6
		c0-2.6-0.1-3.4-1.4-6.1l-6.1-12.6c-1-2.1-1.5-2.9-3.3-3.2l-1.7-0.3c-0.4-0.4-0.4-1.6,0.2-1.8c2.3,0.1,4.2,0.2,7.2,0.2
		c3.1,0,5.7-0.1,7.5-0.2c0.4,0.2,0.5,1.4,0.1,1.8l-1.7,0.4c-1,0.2-1.2,0.4-1.2,0.4c0,0.4,0.3,1.2,1.3,3.6l2.4,5.5l2.3,5
		c1.5-2.5,2.9-5.5,4.3-8.1c1.9-3.6,2.7-5.3,2.7-5.9c0-0.3-0.5-0.5-1.7-0.7L287.8,3c-0.4-0.3-0.4-1.6,0.1-1.8
		c2.1,0.1,3.9,0.2,5.7,0.2c1.9,0,3.6-0.1,5-0.2c0.6,0.2,0.6,1.5,0.2,1.8l-1.3,0.3c-1,0.2-1.9,0.5-2.4,1.2c-0.8,1-2.1,2.8-4.5,7.3
		l-3.2,5.8c-1.3,2.4-1.8,3.7-1.8,6.6V27.7L285.6,27.7z"/>
	<path class="st0" d="M165.4,60.6c9.7,0,13,6.3,7.6,16.9l-18.7,37.1l-18.7-37.1c-5.4-10.6-2.1-16.9,7.6-16.9H165.4L165.4,60.6z
		 M184.4,174.1l-21.2-42l28.1-55.5c8.2-15.9,10.2-16.7,24-16.7v-8H93.4v8c13.9,0,16,0.9,24,16.7l28.1,55.5l-21.2,42L74.6,75.5
		c-5.8-11.6-4.3-15.7,3.7-15.7h5.2v-8H27.1v8l2.9,0.2c18.2,1.1,19.5,2.1,27.8,18.8l63.6,125.4h5.3l27.7-54.6l27.7,54.6h5.3
		l63.6-125.4c8.4-16.7,9.6-17.9,27.8-18.9l1.2-0.1v-7.9h-54.8v8h5.2c8.1,0,9.5,4,3.7,15.7L184.4,174.1L184.4,174.1z"/>
</svg>
